<svg id="bxl-discord-alt" xmlns="http://www.w3.org/2000/svg" width="24.03" height="18.627" viewBox="0 0 24.03 18.627">
  <path id="bxl-discord-alt-2" data-name="bxl-discord-alt" d="M17.384,4.26a12.162,12.162,0,0,0-.636,1.319,17.584,17.584,0,0,0-5.493,0,12.162,12.162,0,0,0-.636-1.319A19.191,19.191,0,0,0,5.665,5.819a20.786,20.786,0,0,0-3.6,13.9,19.91,19.91,0,0,0,6.081,3.107A15.46,15.46,0,0,0,9.479,20.74a11.574,11.574,0,0,1-2.051-1,4.066,4.066,0,0,0,.5-.4,13.985,13.985,0,0,0,12.138,0q.252.216.5.4a13,13,0,0,1-2.051,1.008,14.885,14.885,0,0,0,1.3,2.135,19.719,19.719,0,0,0,6.069-3.107,20.654,20.654,0,0,0-3.6-13.9A19.3,19.3,0,0,0,17.384,4.26ZM10.019,16.914a2.327,2.327,0,0,1-2.159-2.4,2.315,2.315,0,0,1,2.159-2.4,2.315,2.315,0,0,1,2.159,2.4,2.315,2.315,0,0,1-2.159,2.4Zm7.964,0a2.327,2.327,0,0,1-2.159-2.4,2.315,2.315,0,0,1,2.159-2.4,2.3,2.3,0,0,1,2.159,2.4,2.3,2.3,0,0,1-2.159,2.4Z" transform="translate(-1.964 -4.26)" fill="#5146ff"/>
</svg>
