<svg id="bxs-Ai_coach" data-name="bxs-Ai coach" xmlns="http://www.w3.org/2000/svg" width="23" height="19.809" viewBox="0 0 23 19.809">
  <path id="路径_12812" data-name="路径 12812" d="M9.263,14.034A4.144,4.144,0,0,0,13.5,9.8,4.144,4.144,0,0,0,9.263,5.561,4.144,4.144,0,0,0,5.026,9.8,4.144,4.144,0,0,0,9.263,14.034Zm1.211,1.148H8.053A6.06,6.06,0,0,0,2,21.235v1.211H16.526V21.235A6.06,6.06,0,0,0,10.474,15.182ZM21.809,2.636,20.1,4.348a8.475,8.475,0,0,1,0,11.984l1.712,1.712a10.895,10.895,0,0,0,0-15.408Z" transform="translate(-2 -2.636)" fill="#fff"/>
  <path id="路径_12813" data-name="路径 12813" d="M15.535,5.464,14.121,6.88a3,3,0,0,1,0,4.24l1.414,1.416a5,5,0,0,0,0-7.072Z" transform="translate(1.008 -1.587)" fill="#fff"/>
</svg>
