<svg id="bxs-forum" xmlns="http://www.w3.org/2000/svg" width="20" height="20" viewBox="0 0 20 20">
  <path id="bxs-forum-2" data-name="bxs-forum" d="M20,2H4A2,2,0,0,0,2,3.992V16.009A2,2,0,0,0,4,18H7v4l6.351-4H20a2,2,0,0,0,2-1.992V3.992A2,2,0,0,0,20,2Zm-9,8A2,2,0,1,1,9,8a2.055,2.055,0,0,1,.25.025A1.471,1.471,0,0,1,9.5,8,1.5,1.5,0,0,1,11,9.5a1.581,1.581,0,0,1-.025.25A2.075,2.075,0,0,1,11,10Zm4,2a2,2,0,0,1-2-2,2.055,2.055,0,0,1,.025-.25A1.592,1.592,0,0,1,13,9.5,1.5,1.5,0,0,1,14.5,8a1.471,1.471,0,0,1,.25.025A2.055,2.055,0,0,1,15,8a2,2,0,1,1,0,4Z" transform="translate(-2 -2)" fill="#fff"/>
</svg>
