<svg xmlns="http://www.w3.org/2000/svg" xmlns:xlink="http://www.w3.org/1999/xlink" width="27" height="22" viewBox="0 0 27 22">
  <g id="Reservation_button" >
    <g id="matching-icon">
      <path id="glass-cheers" d="M28.475,22.124a1.645,1.645,0,0,0-2.161-.9l-.915.385-1.6-4.259a4.923,4.923,0,0,0,1.428-6.386L21.639,4.67A1.323,1.323,0,0,0,19.983,4.1L15.25,6.083,10.518,4.1a1.318,1.318,0,0,0-1.656.568L5.276,10.96A4.921,4.921,0,0,0,6.7,17.343L5.1,21.6l-.915-.384a1.646,1.646,0,0,0-2.161.9.336.336,0,0,0,.178.439l6.72,2.817a.326.326,0,0,0,.431-.18A1.681,1.681,0,0,0,8.46,23.01l-.915-.385L9.176,18.3a4.871,4.871,0,0,0,.542.054,4.823,4.823,0,0,0,4.7-3.565l.836-3.151.836,3.151A4.629,4.629,0,0,0,21.324,18.3l1.627,4.33-.915.385a1.678,1.678,0,0,0-.894,2.186.328.328,0,0,0,.431.18L28.3,22.559A.335.335,0,0,0,28.475,22.124ZM13.424,10.777,8.783,8.833l1.511-2.65,3.913,1.638Zm3.652,0-.783-2.955,3.913-1.638,1.511,2.65Z" transform="translate(-1.5 -4)" fill="#fff"/>
    </g>
  </g>
</svg>
