<svg id="ic_chat" xmlns="http://www.w3.org/2000/svg" width="24" height="20.488" viewBox="0 0 24 20.488">
  <g id="组_16235" data-name="组 16235">
    <path id="路径_11734" data-name="路径 11734" d="M20.122,967.362a12.907,12.907,0,0,1,7.784,2.456A7.84,7.84,0,0,1,31.244,976c0,.193-.011.386-.027.576a8.518,8.518,0,0,0-1.765-1.134,6.258,6.258,0,0,0-2.625-4.256,11.167,11.167,0,0,0-6.7-2.1,11.167,11.167,0,0,0-6.7,2.1A6.09,6.09,0,0,0,10.756,976a4.98,4.98,0,0,0,1.482,3.734,1.318,1.318,0,0,1,.421.819,11.215,11.215,0,0,1-.192,3.068c1.237-.463,2.16-1.155,3.3-1.53a8.162,8.162,0,0,0,2.113.666,5.98,5.98,0,0,0,1.262,1.854,10.813,10.813,0,0,1-3.384-.657,28.348,28.348,0,0,1-5.579,2.2c.223-1.934.9-3.565.75-5.282A6.724,6.724,0,0,1,9,976a7.84,7.84,0,0,1,3.338-6.181A12.907,12.907,0,0,1,20.122,967.362Zm5.268,7.486a8.8,8.8,0,0,1,5.3,1.665A5.432,5.432,0,0,1,33,980.8a4.7,4.7,0,0,1-1.28,3.293,19.521,19.521,0,0,0,.6,3.761,19,19,0,0,1-4.125-1.557,8.467,8.467,0,0,1-2.808.441,8.8,8.8,0,0,1-5.3-1.665,5.112,5.112,0,0,1,0-8.557A8.8,8.8,0,0,1,25.39,974.848Z" transform="translate(-9 -967.362)" fill="#fff"/>
  </g>
</svg>
